<?xml version="1.0" encoding="UTF-8" standalone="no"?>
<svg width="1885px" height="286px" viewBox="0 0 1885 286" version="1.1" xmlns="http://www.w3.org/2000/svg" xmlns:xlink="http://www.w3.org/1999/xlink" xmlns:sketch="http://www.bohemiancoding.com/sketch/ns">
    <!-- Generator: Sketch 3.1 (8751) - http://www.bohemiancoding.com/sketch -->
    <title>codenugget-logo 2</title>
    <desc>Created with Sketch.</desc>
    <defs></defs>
    <g id="Page-1" stroke="none" stroke-width="1" fill="none" fill-rule="evenodd" sketch:type="MSPage">
        <g id="cn_logo" sketch:type="MSLayerGroup">
            <path d="M610.39,3.63 C615.94,2.44 621.28,0.17 627,-0.13 L627,245 C622.07,244.99 617.13,245.03 612.21,244.96 C611.76,238.87 611.63,232.76 610.86,226.7 C607.96,232.2 604.64,237.88 598.99,240.98 C589.64,246.58 578.36,244.65 568.01,245.01 C558.54,245.32 548.03,244.04 541.04,236.97 C533.04,228.87 531.29,216.87 530.86,205.98 C530.75,176.97 530.83,147.96 530.82,118.96 C531,109.08 532.01,98.73 537.01,90 C540.61,83.64 546.97,79.09 554.04,77.39 C562.53,75.25 571.35,76.16 580,75.95 C587.5,75.8 595.69,76.35 601.79,81.24 C605.54,84 607.69,88.2 610.18,92.01 C610.58,62.56 610.16,33.09 610.39,3.63 Z M566.29,92.33 C571.51,92.01 576.74,92.27 581.98,92.19 C587.02,92.27 592.34,91.62 597.06,93.85 C602.01,95.96 605.54,100.45 607.47,105.37 C610.25,112.2 610.39,119.72 610.34,127 C610.32,147.34 610.34,167.68 610.34,188.02 C610.3,197.88 611,208.36 606.38,217.43 C603.37,223.69 597.1,228.57 590.01,228.75 C582.65,228.88 575.29,228.8 567.94,228.79 C562.07,228.81 555.89,226.32 552.75,221.16 C548.26,214.02 547.96,205.24 548,197.07 C548,171.71 547.99,146.36 548.01,121.01 C548.05,113.77 548.8,106.07 552.87,99.86 C555.76,95.32 561.03,92.79 566.29,92.33 Z" id="Fill-2" fill="#1FA49E" sketch:type="MSShapeGroup"></path>
            <path d="M838.9,1.01 C844.12,0.12 849.45,0.35 854.74,0.33 C854.22,5.89 853.65,11.44 853.11,17 C848.67,17.08 843.84,16.46 839.9,18.93 C835.81,21.35 833.67,25.94 832.55,30.38 C830.73,37.43 831.02,44.76 831,51.97 C831.01,115.29 830.97,178.62 831.02,241.94 C831.25,249.86 831.74,258.69 837.1,265.03 C841.15,269.71 847.8,269.4 853.43,269.37 C853.06,274.92 852.49,280.45 852.12,286 C842.54,286.23 831.77,285.61 824.41,278.66 C815.85,270.61 814.2,258.09 813.84,246.93 C813.77,178.3 813.82,109.67 813.82,41.03 C813.95,31.28 815.01,20.97 820.34,12.54 C824.38,6.11 831.49,2.13 838.9,1.01" id="Fill-3" fill="#1FA49E" sketch:type="MSShapeGroup"></path>
            <path d="M1844.08,0.29 C1852.72,0.36 1861.96,-0.18 1869.78,4.23 C1876.53,7.83 1880.79,14.81 1882.66,22.07 C1885.67,33.13 1884.88,44.71 1885,56.05 L1885,237.04 C1885.04,247.51 1885.09,258.34 1881.28,268.26 C1878.89,274.57 1874.23,280.15 1868.01,282.91 C1861.34,285.88 1853.83,286.28 1846.65,285.85 C1846.33,280.34 1845.77,274.84 1845.41,269.34 C1850.86,269.4 1857.25,269.68 1861.28,265.29 C1866.89,259.02 1867.15,250.01 1867.55,242.04 C1867.63,184.04 1867.56,126.05 1867.59,68.06 C1867.45,58.42 1867.87,48.76 1867.32,39.13 C1866.67,32.32 1865.69,24.47 1860.05,19.83 C1855.93,16.38 1850.29,17.12 1845.33,16.9 C1844.92,11.36 1844.54,5.82 1844.08,0.29" id="Fill-4" fill="#1FA49E" sketch:type="MSShapeGroup"></path>
            <path d="M266.77,20.74 C273.05,13.04 283.39,10.34 292.95,10.16 C308.97,9.99 325.01,10.13 341.04,10.09 C349.95,10.09 359.53,11.41 366.6,17.32 C373.93,23.36 376.95,32.96 378.11,42.07 C379.63,54.7 378.77,67.45 379,80.14 C372.94,80.13 366.88,80.14 360.82,80.14 C360.47,68.72 361.63,57.18 359.82,45.85 C358.81,40.08 356.46,33.94 351.25,30.72 C346.74,27.83 341.2,27.73 336.02,27.73 C323.04,27.78 310.06,27.67 297.09,27.79 C291.32,27.78 285.1,29.63 281.55,34.47 C276.85,40.91 276.15,49.25 276.01,56.97 C275.99,103.97 275.99,150.97 276.02,197.97 C276.15,205.69 276.82,214.04 281.53,220.49 C285.06,225.35 291.3,227.22 297.08,227.21 C310.71,227.32 324.34,227.22 337.97,227.25 C343.44,227.28 349.39,226.46 353.53,222.53 C358.65,217.61 359.93,210.17 360.57,203.41 C361.13,193.69 360.54,183.94 360.93,174.21 C366.94,174.29 372.95,174.27 378.96,174.22 C378.77,188.18 379.84,202.26 377.62,216.1 C376.16,224.77 372.49,233.71 365.03,238.88 C357.8,244.03 348.6,244.95 339.97,244.92 C324.31,244.86 308.65,245.01 292.99,244.84 C283.39,244.66 273.01,241.95 266.71,234.19 C259.44,225.2 258.18,213.11 257.84,201.96 C257.79,152.33 257.79,102.7 257.84,53.06 C258.18,41.89 259.45,29.74 266.77,20.74" id="Fill-5" fill="#1FA49E" sketch:type="MSShapeGroup"></path>
            <path d="M914.11,17.39 C922.81,17.57 931.52,17.36 940.22,17.5 C951.8,46.41 963.52,75.26 975.15,104.14 C983.4,124.21 991.14,144.51 999.72,164.44 C999.76,115.48 999.8,66.51 999.7,17.55 C1003.66,17.38 1007.63,17.47 1011.61,17.44 C1011.54,86.7 1011.75,155.96 1011.5,225.21 C985.2,159.91 958.83,94.63 932.58,29.31 C930.2,29.33 927.84,29.26 925.48,29.42 C925.56,106.73 925.63,184.05 925.44,261.35 C921.62,261.28 917.81,261.29 914,261.3 C914.07,180 913.86,98.69 914.11,17.39" id="Fill-6" fill="#3D3D3D" sketch:type="MSShapeGroup"></path>
            <path d="M1019.32,17.45 C1023.26,17.46 1027.21,17.42 1031.17,17.51 C1031.1,98.77 1031.16,180.04 1031.14,261.3 C1022.34,261.32 1013.54,261.27 1004.75,261.33 C984.78,212.29 965.19,163.08 945.18,114.06 C944.97,163.14 945.16,212.22 945.09,261.3 C941.24,261.3 937.41,261.3 933.58,261.31 C933.64,192.46 933.48,123.6 933.66,54.76 C935.53,57.13 936.23,60.15 937.44,62.88 C962.56,125.07 987.51,187.34 1012.73,249.5 C1014.91,249.47 1017.1,249.45 1019.31,249.43 C1019.33,172.1 1019.31,94.78 1019.32,17.45" id="Fill-7" fill="#3D3D3D" sketch:type="MSShapeGroup"></path>
            <path d="M1071,18 C1074.86,18 1078.73,17.94 1082.6,18.09 C1082.47,74.39 1082.58,130.69 1082.54,186.99 C1082.48,198.97 1082.26,211.27 1086.13,222.77 C1089.41,232.92 1096.47,242.23 1106.36,246.66 C1115.35,250.68 1125.58,251.2 1135.21,249.64 C1143.72,248.28 1151.88,244 1157.23,237.15 C1166.12,226.6 1168.4,212.27 1168.65,198.9 C1168.77,138.6 1168.67,78.3 1168.7,18 L1180.19,18 L1180.19,193.95 C1180.44,209.19 1178.71,225.18 1170.71,238.49 C1165.39,247.42 1157,254.33 1147.49,258.42 C1137.48,262.2 1126.44,262.62 1115.9,261.39 C1100.34,259.85 1086.22,249.63 1079.03,235.88 C1073.06,224.6 1071.3,211.65 1070.99,199.05 C1071.01,138.7 1071,78.35 1071,18" id="Fill-8" fill="#3D3D3D" sketch:type="MSShapeGroup"></path>
            <path d="M1090.58,18 L1102.09,18 L1102.09,191.02 C1102.13,201.46 1101.67,212.64 1107,222.04 C1109.65,227.17 1115.13,230.64 1120.93,230.7 C1128.02,231.08 1136.49,231.54 1141.63,225.65 C1148.12,218.09 1149.04,207.55 1149.04,197.99 C1149.08,138 1149.06,78 1149.05,18.01 C1152.94,17.99 1156.83,17.96 1160.73,18.06 C1160.62,77.03 1160.71,136 1160.68,194.97 C1160.65,204.57 1160.11,214.41 1156.55,223.43 C1154.16,229.48 1150.09,235.09 1144.3,238.26 C1136.63,242.52 1127.47,242.9 1118.93,242.01 C1110.48,241.04 1102.13,236.72 1097.66,229.3 C1091.21,218.79 1090.51,206.01 1090.58,194 L1090.58,18" id="Fill-9" fill="#3D3D3D" sketch:type="MSShapeGroup"></path>
            <path d="M1250.55,24.57 C1260.06,19.25 1271.18,17.48 1281.98,17.78 C1293.38,17.99 1305.09,20.79 1314.4,27.64 C1325,35.41 1331.95,47.4 1335.1,60.03 C1338.8,73.85 1338.16,88.26 1338.2,102.42 C1334.34,102.42 1330.48,102.42 1326.64,102.43 C1326.55,90.6 1327.2,78.64 1324.83,66.97 C1322.99,57.64 1319.29,48.34 1312.57,41.43 C1306.4,35.03 1297.79,31.4 1289.07,30.26 C1279.12,28.94 1268.66,29.49 1259.33,33.41 C1251.55,36.66 1245.15,42.8 1241.2,50.2 C1235.1,61.41 1233.65,74.44 1233.55,87.01 C1233.54,121.99 1233.54,156.98 1233.55,191.97 C1233.64,203.63 1234.83,215.59 1239.75,226.3 C1243.09,233.69 1248.57,240.18 1255.63,244.25 C1262.95,248.53 1271.56,250.15 1279.98,250.03 C1289.33,250.17 1298.98,248.14 1306.81,242.81 C1313.18,238.49 1318.01,232.13 1320.99,225.06 C1325.41,214.64 1326.55,203.18 1326.63,191.97 C1326.66,179.35 1326.62,166.74 1326.65,154.12 C1307.43,154.06 1288.22,154.11 1269,154.09 C1268.99,150.25 1268.99,146.42 1269,142.58 C1292.07,142.59 1315.13,142.57 1338.2,142.59 C1338.17,158.73 1338.21,174.87 1338.18,191.01 C1338.21,207.18 1336.03,224.17 1327.12,238.05 C1322.3,245.82 1314.89,251.57 1307.03,256.02 C1298.78,260.49 1289.21,261.59 1279.97,261.61 C1270.97,261.6 1261.66,260.59 1253.58,256.35 C1245.06,251.62 1237.18,245.23 1232.22,236.71 C1223.84,222.74 1221.9,205.99 1222,189.99 L1222,88.96 C1221.9,73.69 1223.74,57.82 1231.28,44.28 C1235.88,36.22 1242.36,29.07 1250.55,24.57" id="Fill-10" fill="#3D3D3D" sketch:type="MSShapeGroup"></path>
            <path d="M1402.96,24.9 C1412.29,19.5 1423.27,17.59 1433.95,17.76 C1445.45,17.83 1457.3,20.46 1466.8,27.22 C1477.75,34.96 1484.91,47.2 1488.11,60.08 C1491.8,73.88 1491.16,88.27 1491.19,102.42 L1479.63,102.42 C1479.56,90.55 1480.21,78.53 1477.79,66.82 C1475.96,57.54 1472.26,48.33 1465.6,41.45 C1459.44,35.05 1450.84,31.42 1442.13,30.26 C1432.42,28.98 1422.24,29.46 1413.06,33.11 C1405.18,36.21 1398.61,42.22 1394.53,49.6 C1388.14,60.95 1386.65,74.27 1386.55,87.08 C1386.64,124.05 1386.33,161.03 1386.71,198 C1387.22,209.1 1389.17,220.47 1394.78,230.22 C1399.22,237.98 1406.39,244.16 1414.83,247.16 C1422.87,250.15 1431.62,250.44 1440.09,249.71 C1450.12,248.69 1460.07,244.43 1466.73,236.69 C1475.58,226.67 1478.52,212.95 1479.38,199.96 C1479.96,184.69 1479.47,169.4 1479.66,154.13 C1460.44,154.05 1441.22,154.12 1422,154.09 C1421.99,150.25 1421.99,146.41 1422,142.57 C1445.07,142.59 1468.13,142.58 1491.2,142.58 C1491.17,158.74 1491.21,174.9 1491.18,191.06 C1491.21,207.23 1489.01,224.2 1480.11,238.08 C1475.27,245.85 1467.85,251.59 1459.99,256.05 C1451.75,260.49 1442.19,261.59 1432.97,261.61 C1423.99,261.6 1414.72,260.59 1406.65,256.39 C1397.87,251.54 1389.8,244.91 1384.83,236.06 C1376.08,221.01 1374.7,203.06 1375,186.02 C1374.99,153.36 1375.01,120.7 1374.99,88.03 C1374.98,73.06 1376.89,57.52 1384.3,44.25 C1388.78,36.4 1395.06,29.41 1402.96,24.9" id="Fill-11" fill="#3D3D3D" sketch:type="MSShapeGroup"></path>
            <path d="M1528,18 L1629,18 C1628.99,22 1628.99,26 1629,30 L1539.54,30 C1539.56,103.48 1539.53,176.96 1539.56,250.44 C1569.34,250.44 1599.13,250.51 1628.92,250.41 C1629.05,254.27 1628.99,258.13 1629,262 L1528,262 L1528,18" id="Fill-12" fill="#3D3D3D" sketch:type="MSShapeGroup"></path>
            <path d="M1664.75,18 C1710.74,18.04 1756.74,17.93 1802.73,18.05 C1802.65,22.02 1802.65,25.98 1802.73,29.94 C1756.74,30.07 1710.74,29.96 1664.75,30 C1664.74,26 1664.74,22 1664.75,18" id="Fill-13" fill="#3D3D3D" sketch:type="MSShapeGroup"></path>
            <path d="M9.33,29.29 C15.51,22.97 24.07,18.92 32.97,18.73 C43.66,18.61 54.37,18.71 65.06,18.68 C74.52,18.63 84.04,22.45 90.46,29.47 C96.44,36.1 100.04,45.04 99.71,54.02 C99.62,75.5 99.8,96.98 99.62,118.45 C80.11,118.21 60.59,118.41 41.07,118.35 C33.69,118.43 25.82,118.69 19.22,114.82 C7.46,109.5 -0.22,96.79 0.01,83.96 C0.04,73.62 0.04,63.29 0.01,52.95 C-0.09,44.25 3.41,35.63 9.33,29.29 Z M20.82,53.05 C20.57,46.3 26.24,39.7 33.11,39.53 C44.07,39.34 55.05,39.46 66.01,39.47 C73.05,39.44 79.16,45.9 78.93,52.9 C79.11,65.94 78.93,78.98 79.02,92.02 C79.15,93.82 78.61,95.54 78.02,97.22 C63.37,97.83 48.68,97.34 34.02,97.48 C26.91,97.82 20.3,91.12 20.82,84 C20.8,73.69 20.79,63.37 20.82,53.05 L92.4618301,104.919181 L20.82,53.05 Z" id="Fill-14" fill="#1FA49E" sketch:type="MSShapeGroup"></path>
            <path d="M147.21,19.28 C154.77,18.27 162.42,18.82 170.02,18.68 C177.43,18.85 184.98,18.08 192.25,19.88 C206.29,23.36 217.47,36.45 218.09,51.02 C218.52,61.67 218.21,72.35 218.26,83.02 C218.34,92.52 214.56,102.01 207.79,108.69 C201.38,114.6 192.84,118.39 184.06,118.33 C162.21,118.41 140.36,118.26 118.52,118.41 C118.61,96.95 118.54,75.5 118.55,54.05 C118.63,44.58 121.99,34.6 129.56,28.52 C134.02,23.35 140.62,20.55 147.21,19.28 Z M149.45,39.64 C159.27,39.16 169.15,39.59 178.99,39.44 C183.19,39.56 187.94,38.72 191.53,41.47 C194.44,43.9 197.41,47.02 197.42,51.07 C197.47,62.36 197.41,73.65 197.45,84.95 C197.68,90.96 192.45,96.03 186.95,97.42 C172.64,97.6 158.32,97.42 144,97.51 C142.11,97.58 139.38,97.35 139.46,94.86 C139.31,80.55 139.37,66.24 139.43,51.93 C139.24,46.1 144.01,41.04 149.45,39.64 Z" id="Fill-15" fill="#1FA49E" sketch:type="MSShapeGroup"></path>
            <path d="M1264.02,39.93 C1272.99,36.64 1282.99,36.59 1292.23,38.74 C1301.87,41.04 1309.91,48.28 1313.68,57.39 C1319.75,71.59 1318.5,87.39 1318.55,102.46 C1314.61,102.4 1310.67,102.41 1306.74,102.42 C1306.51,90.65 1307.67,78.63 1304.68,67.1 C1302.84,60.16 1298.72,52.98 1291.5,50.65 C1283.98,48.63 1275.86,48.61 1268.35,50.65 C1261.74,52.8 1257.59,59.1 1255.67,65.48 C1252.43,75.66 1253.23,86.5 1253.09,97.03 C1253.1,128.69 1253.07,160.35 1253.11,192 C1253.16,201.88 1253.66,212.4 1259.01,221.04 C1262.31,226.65 1268.63,230.12 1275.1,230.32 C1282.89,230.87 1292.05,230.95 1297.91,224.89 C1303.87,218.52 1305.79,209.53 1306.46,201.09 C1307.04,191.99 1306.57,182.86 1306.82,173.75 C1294.23,173.46 1281.64,173.64 1269.05,173.66 C1268.95,169.77 1268.99,165.88 1269,162 C1285.56,162.06 1302.12,161.88 1318.68,162.09 C1318.41,174.69 1318.91,187.29 1318.36,199.88 C1317.66,211.08 1315.3,222.97 1307.59,231.58 C1302.07,238.21 1293.43,241.23 1285.06,241.92 C1275.99,242.64 1266.3,241.72 1258.45,236.74 C1251.27,231.98 1246.6,224.15 1244.36,215.96 C1241.6,206.25 1241.51,196.06 1241.58,186.04 C1241.58,153.34 1241.57,120.64 1241.58,87.94 C1241.58,78.13 1242.3,68.11 1245.88,58.88 C1249.07,50.5 1255.46,43.07 1264.02,39.93" id="Fill-16" fill="#3D3D3D" sketch:type="MSShapeGroup"></path>
            <path d="M1416.94,39.96 C1425.94,36.62 1436,36.58 1445.28,38.76 C1454.9,41.06 1462.9,48.29 1466.68,57.37 C1472.73,71.59 1471.55,87.4 1471.52,102.49 C1467.58,102.39 1463.66,102.41 1459.74,102.43 C1459.53,90.93 1460.58,79.23 1457.91,67.94 C1456.13,60.72 1452.04,53.12 1444.55,50.67 C1437.25,48.66 1429.41,48.66 1422.07,50.44 C1416.18,52.04 1411.84,57.09 1409.72,62.64 C1405.61,72.54 1406.17,83.49 1406.09,93.99 C1406.1,126.67 1406.07,159.36 1406.11,192.04 C1406.15,201.89 1406.67,212.37 1411.98,221 C1415.28,226.64 1421.61,230.12 1428.11,230.32 C1435.9,230.86 1445.06,230.95 1450.91,224.89 C1457.61,217.69 1459.2,207.39 1459.64,197.94 C1459.74,189.8 1459.93,181.64 1459.57,173.51 C1447.08,173.78 1434.58,173.47 1422.08,173.67 C1421.93,169.78 1421.99,165.89 1422,162 C1438.56,162.06 1455.12,161.88 1471.67,162.09 C1471.43,174.48 1471.88,186.89 1471.39,199.28 C1470.76,210.69 1468.42,222.83 1460.57,231.61 C1455.52,237.62 1447.83,240.75 1440.18,241.67 C1431.85,242.68 1423.08,242.22 1415.31,238.82 C1407.39,235.38 1401.76,228.06 1398.75,220.14 C1395,210.24 1394.52,199.5 1394.58,189.02 C1394.59,155.35 1394.57,121.68 1394.58,88 C1394.57,77.95 1395.32,67.64 1399.13,58.23 C1402.39,50.15 1408.64,43.03 1416.94,39.96" id="Fill-17" fill="#3D3D3D" sketch:type="MSShapeGroup"></path>
            <path d="M1547.58,37.64 C1574.72,37.65 1601.86,37.64 1629,37.64 C1628.99,41.59 1628.99,45.53 1629,49.47 C1605.72,49.45 1582.43,49.53 1559.15,49.44 C1559.01,74.39 1559.13,99.35 1559.09,124.31 C1582.38,124.31 1605.67,124.35 1628.97,124.29 C1629.02,128.25 1628.99,132.22 1629,136.19 L1547.58,136.19 L1547.58,37.64" id="Fill-18" fill="#3D3D3D" sketch:type="MSShapeGroup"></path>
            <path d="M1664.75,37.64 C1686.48,37.65 1708.21,37.63 1729.95,37.65 C1729.93,112.43 1729.94,187.22 1729.94,262 L1717.96,262 C1717.92,191.15 1718.03,120.29 1717.9,49.44 C1700.18,49.53 1682.46,49.45 1664.75,49.48 C1664.75,45.53 1664.74,41.59 1664.75,37.64" id="Fill-19" fill="#3D3D3D" sketch:type="MSShapeGroup"></path>
            <path d="M1737.58,37.64 C1759.24,37.61 1780.9,37.73 1802.57,37.58 C1802.75,41.56 1802.73,45.56 1802.58,49.55 C1784.84,49.38 1767.11,49.51 1749.38,49.49 C1749.33,120.32 1749.37,191.16 1749.36,262 L1737.58,262 C1737.58,187.21 1737.59,112.42 1737.58,37.64" id="Fill-20" fill="#3D3D3D" sketch:type="MSShapeGroup"></path>
            <path d="M430.49,76.71 C441.24,75.29 452.13,76.24 462.94,75.95 C472.84,75.77 483.86,77.36 490.95,84.99 C499.35,94.09 500.56,107.19 500.97,119.01 C501.03,147 500.99,174.99 500.99,202.98 C500.74,213.17 499.65,223.99 493.76,232.65 C489.29,239.3 481.68,243.32 473.84,244.36 C465.61,245.51 457.28,244.81 449.01,245 C439.13,244.99 428.5,245.73 419.61,240.59 C412,236.36 407.44,228.25 405.62,219.95 C403.26,210.49 403.89,200.69 403.81,191.04 C403.83,166.7 403.77,142.36 403.84,118.03 C404.14,108.01 405.3,97.45 410.79,88.8 C415.08,82 422.65,77.85 430.49,76.71 Z M438.25,92.35 C446.16,91.97 454.09,92.3 462.01,92.18 C467.98,91.95 474.68,93.44 478.37,98.53 C483.23,105.25 483.66,113.96 483.8,121.96 C483.77,148.95 483.9,175.95 483.74,202.94 C483.29,210.7 482.4,219.67 476.09,225.07 C469.56,230.26 460.72,228.5 453.02,228.81 C446.19,228.49 439.06,229.78 432.51,227.31 C428.18,225.69 425.06,221.82 423.51,217.56 C420.85,210.36 420.98,202.55 421,194.98 C421.01,169.98 420.97,144.99 421.02,119.99 C421.18,113 421.84,105.59 425.66,99.54 C428.33,95.21 433.29,92.82 438.25,92.35 Z" id="Fill-23" fill="#1FA49E" sketch:type="MSShapeGroup"></path>
            <path d="M679.04,77.98 C688.49,75.51 698.35,76.01 708.02,75.95 C716.89,75.95 726.09,76.06 734.41,79.51 C740.71,82.1 745.55,87.62 747.63,94.07 C751.51,105.65 750.14,118.04 750.42,130.04 C750.36,139.96 750.7,150.65 745.48,159.48 C742.34,164.71 736.7,167.86 730.91,169.25 C723.42,171.06 715.65,171.02 708.01,171 C697,171 686,170.99 675,171 C675.04,181.68 674.91,192.36 675.07,203.04 C675.39,211.07 676.59,220.37 683.38,225.66 C689.91,230.45 698.43,228.77 705.98,229.09 C713.72,228.99 723.05,230.27 728.8,223.82 C735.75,215.59 734.91,204.01 735,193.92 C740.38,193.9 745.76,193.91 751.14,193.92 C751.13,205.73 751.3,218.14 746.23,229.09 C742.93,236.35 735.99,241.47 728.31,243.28 C718.71,245.71 708.73,244.88 698.93,245.05 C689.88,245.04 680.25,244.52 672.36,239.59 C666.2,235.81 662.27,229.28 660.37,222.44 C657.3,211.55 657.83,200.14 657.81,188.95 L657.81,123.98 C657.85,112.76 657.16,100.84 662.36,90.52 C665.59,84.01 672.08,79.66 679.04,77.98 Z M680.13,96.95 C683.61,93.11 689.02,91.88 694.03,91.94 C701.67,91.92 709.32,91.83 716.97,91.98 C722.63,91.98 728.66,94.42 731.47,99.6 C735.69,107.37 734.52,116.52 734.7,125.01 C734.57,132.57 735.55,140.78 731.64,147.64 C728.53,153.05 721.88,154.96 716,154.97 C702.33,155.04 688.67,154.98 675,155 C675.02,141.32 674.96,127.65 675.03,113.97 C675.19,108.04 676.05,101.57 680.13,96.95 Z" id="Fill-24" fill="#1FA49E" sketch:type="MSShapeGroup"></path>
            <path d="M8.74,148.67 C15.12,141.6 24.5,137.5 33.96,137.19 C55.9,137.17 77.84,137.25 99.78,137.15 C99.56,159.45 99.78,181.75 99.68,204.05 C99.26,212.24 95.77,220.14 90.35,226.26 C83.78,233.03 74.44,237.14 64.96,236.91 C53.62,236.81 42.28,237.04 30.95,236.8 C22.99,235.87 15.22,232.28 9.59,226.52 C3.58,219.9 -0.24,211.04 0.01,202.02 C0.04,192.01 0.04,182 0.01,172 C-0.07,163.49 3.24,155.1 8.74,148.67 Z M29.5,158.69 C31.9,157.87 34.47,157.96 36.97,157.95 C49.99,158.03 63.01,157.89 76.03,158.01 C77.67,157.78 79.21,159.16 78.96,160.85 C79.06,174.57 78.95,188.29 79.02,202.01 C79.54,209.19 73.3,216.35 65.96,216.17 C56.65,216.25 47.33,216.14 38.02,216.21 C34.45,216.17 30.55,216.52 27.39,214.53 C23.84,212.17 20.75,208.42 20.85,203.94 C20.74,192.97 20.83,181.98 20.81,171.01 C20.53,165.53 24.54,160.56 29.5,158.69 Z" id="Fill-28" fill="#1FA49E" sketch:type="MSShapeGroup"></path>
            <path d="M118.6,137.13 C140.75,137.29 162.91,137.14 185.06,137.2 C198.18,137.59 210.81,146.06 215.59,158.39 C219.66,167.38 217.91,177.46 218.29,187 C217.92,196.35 219.56,206.15 215.93,215.06 C211.2,228.05 197.79,237.14 184,236.91 C173.99,236.89 163.97,236.88 153.96,236.91 C141.15,237.44 128.07,230.12 122.5,218.45 C119.65,213.47 118.55,207.69 118.55,202.01 C118.6,180.38 118.5,158.75 118.6,137.13 Z M140.34,158.48 C141.7,157.6 143.46,158.11 144.99,157.94 C158,158.02 171.01,157.93 184.02,157.98 C191.01,157.75 197.64,163.97 197.42,171.05 C197.46,181.69 197.44,192.32 197.43,202.96 C197.68,209.73 191.72,215.94 184.97,216.13 C174.32,216.29 163.67,216.16 153.02,216.19 C145.99,216.51 139.19,210.26 139.41,203.11 C139.28,189.07 139.54,175.02 139.27,160.98 C139.15,159.92 139.51,159.09 140.34,158.48 Z" id="Fill-29" fill="#1FA49E" sketch:type="MSShapeGroup"></path>
            <path d="M1547.58,143.85 C1574.72,143.87 1601.86,143.85 1629,143.86 C1628.99,147.84 1629.02,151.81 1628.96,155.79 C1605.67,155.73 1582.38,155.77 1559.09,155.77 C1559.1,180.81 1559.09,205.86 1559.09,230.9 C1582.39,230.92 1605.69,230.9 1629,230.91 C1628.99,234.74 1628.99,238.58 1629,242.42 C1601.86,242.42 1574.71,242.41 1547.57,242.43 C1547.59,209.57 1547.57,176.71 1547.58,143.85" id="Fill-30" fill="#3D3D3D" sketch:type="MSShapeGroup"></path>
        </g>
    </g>
</svg>